<svg xmlns="http://www.w3.org/2000/svg" xmlns:xlink="http://www.w3.org/1999/xlink" width="177" zoomAndPan="magnify" viewBox="0 0 132.75 30.000001" height="40" preserveAspectRatio="xMidYMid meet" version="1.0"><defs><g/><clipPath id="d01d3a859e"><path d="M 2.019531 0 L 130.488281 0 L 130.488281 20 L 2.019531 20 Z M 2.019531 0 " clip-rule="nonzero"/></clipPath><clipPath id="770bceeeb5"><path d="M 0.0195312 0 L 17 0 L 17 14 L 0.0195312 14 Z M 0.0195312 0 " clip-rule="nonzero"/></clipPath><clipPath id="46e43d1afb"><rect x="0" width="129" y="0" height="20"/></clipPath><clipPath id="7de2e7fef5"><path d="M 18 15 L 115 15 L 115 29.03125 L 18 29.03125 Z M 18 15 " clip-rule="nonzero"/></clipPath><clipPath id="a18c4b242a"><rect x="0" width="97" y="0" height="15"/></clipPath></defs><g clip-path="url(#d01d3a859e)"><g transform="matrix(1, 0, 0, 1, 2, 0.000000000000005692)"><g clip-path="url(#46e43d1afb)"><g clip-path="url(#770bceeeb5)"><g fill="#000000" fill-opacity="1"><g transform="translate(-0.801889, 13.945202)"><g><path d="M 13.234375 0 L 13.203125 -6.1875 L 10.25 -1.21875 L 8.234375 -1.21875 L 5.28125 -5.984375 L 5.28125 0 L 1.109375 0 L 1.109375 -13.578125 L 4.875 -13.578125 L 9.296875 -6.34375 L 13.609375 -13.578125 L 17.375 -13.578125 L 17.40625 0 Z M 13.234375 0 "/></g></g></g></g><g fill="#000000" fill-opacity="1"><g transform="translate(17.711944, 13.945202)"><g><path d="M 1.109375 -13.578125 L 5.6875 -13.578125 L 5.6875 0 L 1.109375 0 Z M 1.109375 -13.578125 "/></g></g></g><g fill="#000000" fill-opacity="1"><g transform="translate(24.504231, 13.945202)"><g><path d="M 6.640625 -4.5 L 5.609375 -3.359375 L 5.609375 0 L 1.109375 0 L 1.109375 -13.578125 L 5.609375 -13.578125 L 5.609375 -8.65625 L 10.078125 -13.578125 L 15.0625 -13.578125 L 9.625 -7.609375 L 15.328125 0 L 10.03125 0 Z M 6.640625 -4.5 "/></g></g></g><g fill="#000000" fill-opacity="1"><g transform="translate(39.350231, 13.945202)"><g><path d="M 12.40625 -3.453125 L 12.40625 0 L 1.109375 0 L 1.109375 -13.578125 L 12.140625 -13.578125 L 12.140625 -10.125 L 5.609375 -10.125 L 5.609375 -8.53125 L 11.359375 -8.53125 L 11.359375 -5.234375 L 5.609375 -5.234375 L 5.609375 -3.453125 Z M 12.40625 -3.453125 "/></g></g></g><g fill="#000000" fill-opacity="1"><g transform="translate(52.410831, 13.945202)"><g/></g></g><g fill="#000000" fill-opacity="1"><g transform="translate(58.232788, 13.945202)"><g><path d="M 23.203125 -13.578125 L 18.859375 0 L 13.953125 0 L 11.765625 -7.265625 L 9.453125 0 L 4.546875 0 L 0.1875 -13.578125 L 4.90625 -13.578125 L 7.28125 -5.859375 L 9.78125 -13.578125 L 13.984375 -13.578125 L 16.359375 -5.765625 L 18.859375 -13.578125 Z M 23.203125 -13.578125 "/></g></g></g><g fill="#000000" fill-opacity="1"><g transform="translate(81.345956, 13.945202)"><g><path d="M 1.109375 -13.578125 L 5.6875 -13.578125 L 5.6875 0 L 1.109375 0 Z M 1.109375 -13.578125 "/></g></g></g><g fill="#000000" fill-opacity="1"><g transform="translate(88.13824, 13.945202)"><g><path d="M 1.109375 -13.578125 L 5.6875 -13.578125 L 5.6875 -3.546875 L 11.8125 -3.546875 L 11.8125 0 L 1.109375 0 Z M 1.109375 -13.578125 "/></g></g></g><g fill="#000000" fill-opacity="1"><g transform="translate(100.112072, 13.945202)"><g><path d="M 12.40625 -3.453125 L 12.40625 0 L 1.109375 0 L 1.109375 -13.578125 L 12.140625 -13.578125 L 12.140625 -10.125 L 5.609375 -10.125 L 5.609375 -8.53125 L 11.359375 -8.53125 L 11.359375 -5.234375 L 5.609375 -5.234375 L 5.609375 -3.453125 Z M 12.40625 -3.453125 "/></g></g></g><g fill="#000000" fill-opacity="1"><g transform="translate(113.172669, 13.945202)"><g><path d="M 14.5 -13.578125 L 14.5 0 L 10.734375 0 L 5.5625 -6.171875 L 5.5625 0 L 1.109375 0 L 1.109375 -13.578125 L 4.875 -13.578125 L 10.03125 -7.40625 L 10.03125 -13.578125 Z M 14.5 -13.578125 "/></g></g></g></g></g></g><g clip-path="url(#7de2e7fef5)"><g transform="matrix(1, 0, 0, 1, 18, 15)"><g clip-path="url(#a18c4b242a)"><g fill="#000000" fill-opacity="1"><g transform="translate(1.229147, 12.700553)"><g><path d="M 4.6875 -2.3125 L 3.84375 -2.3125 L 3.84375 0 L 0.75 0 L 0.75 -9.171875 L 5.171875 -9.171875 C 6.015625 -9.171875 6.75 -9.03125 7.375 -8.75 C 8.007812 -8.476562 8.492188 -8.078125 8.828125 -7.546875 C 9.171875 -7.023438 9.34375 -6.414062 9.34375 -5.71875 C 9.34375 -5.0625 9.191406 -4.488281 8.890625 -4 C 8.597656 -3.507812 8.171875 -3.117188 7.609375 -2.828125 L 9.546875 0 L 6.234375 0 Z M 6.234375 -5.71875 C 6.234375 -6.0625 6.125 -6.328125 5.90625 -6.515625 C 5.695312 -6.703125 5.382812 -6.796875 4.96875 -6.796875 L 3.84375 -6.796875 L 3.84375 -4.640625 L 4.96875 -4.640625 C 5.382812 -4.640625 5.695312 -4.734375 5.90625 -4.921875 C 6.125 -5.109375 6.234375 -5.375 6.234375 -5.71875 Z M 6.234375 -5.71875 "/></g></g></g><g fill="#000000" fill-opacity="1"><g transform="translate(10.999818, 12.700553)"><g><path d="M 8.375 -2.328125 L 8.375 0 L 0.75 0 L 0.75 -9.171875 L 8.203125 -9.171875 L 8.203125 -6.84375 L 3.78125 -6.84375 L 3.78125 -5.765625 L 7.671875 -5.765625 L 7.671875 -3.546875 L 3.78125 -3.546875 L 3.78125 -2.328125 Z M 8.375 -2.328125 "/></g></g></g><g fill="#000000" fill-opacity="1"><g transform="translate(19.826213, 12.700553)"><g><path d="M 7 -1.59375 L 3.515625 -1.59375 L 2.890625 0 L -0.25 0 L 3.765625 -9.171875 L 6.796875 -9.171875 L 10.8125 0 L 7.609375 0 Z M 6.140625 -3.828125 L 5.25 -6.140625 L 4.359375 -3.828125 Z M 6.140625 -3.828125 "/></g></g></g><g fill="#000000" fill-opacity="1"><g transform="translate(30.396906, 12.700553)"><g><path d="M 0.75 -9.171875 L 3.84375 -9.171875 L 3.84375 -2.40625 L 7.984375 -2.40625 L 7.984375 0 L 0.75 0 Z M 0.75 -9.171875 "/></g></g></g><g fill="#000000" fill-opacity="1"><g transform="translate(38.488857, 12.700553)"><g/></g></g><g fill="#000000" fill-opacity="1"><g transform="translate(42.423354, 12.700553)"><g><path d="M 8.375 -2.328125 L 8.375 0 L 0.75 0 L 0.75 -9.171875 L 8.203125 -9.171875 L 8.203125 -6.84375 L 3.78125 -6.84375 L 3.78125 -5.765625 L 7.671875 -5.765625 L 7.671875 -3.546875 L 3.78125 -3.546875 L 3.78125 -2.328125 Z M 8.375 -2.328125 "/></g></g></g><g fill="#000000" fill-opacity="1"><g transform="translate(51.24975, 12.700553)"><g><path d="M 4.171875 0.203125 C 3.410156 0.203125 2.664062 0.117188 1.9375 -0.046875 C 1.21875 -0.210938 0.628906 -0.441406 0.171875 -0.734375 L 1.171875 -2.984375 C 1.609375 -2.734375 2.097656 -2.53125 2.640625 -2.375 C 3.179688 -2.226562 3.695312 -2.15625 4.1875 -2.15625 C 4.625 -2.15625 4.929688 -2.195312 5.109375 -2.28125 C 5.296875 -2.363281 5.390625 -2.484375 5.390625 -2.640625 C 5.390625 -2.835938 5.269531 -2.984375 5.03125 -3.078125 C 4.789062 -3.171875 4.394531 -3.273438 3.84375 -3.390625 C 3.132812 -3.546875 2.539062 -3.707031 2.0625 -3.875 C 1.59375 -4.039062 1.179688 -4.316406 0.828125 -4.703125 C 0.484375 -5.097656 0.3125 -5.628906 0.3125 -6.296875 C 0.3125 -6.867188 0.472656 -7.390625 0.796875 -7.859375 C 1.117188 -8.335938 1.601562 -8.710938 2.25 -8.984375 C 2.894531 -9.253906 3.675781 -9.390625 4.59375 -9.390625 C 5.21875 -9.390625 5.832031 -9.320312 6.4375 -9.1875 C 7.050781 -9.050781 7.585938 -8.851562 8.046875 -8.59375 L 7.125 -6.34375 C 6.21875 -6.800781 5.363281 -7.03125 4.5625 -7.03125 C 3.769531 -7.03125 3.375 -6.835938 3.375 -6.453125 C 3.375 -6.265625 3.488281 -6.125 3.71875 -6.03125 C 3.957031 -5.945312 4.347656 -5.847656 4.890625 -5.734375 C 5.585938 -5.609375 6.175781 -5.457031 6.65625 -5.28125 C 7.132812 -5.113281 7.550781 -4.835938 7.90625 -4.453125 C 8.257812 -4.066406 8.4375 -3.546875 8.4375 -2.890625 C 8.4375 -2.304688 8.273438 -1.78125 7.953125 -1.3125 C 7.628906 -0.84375 7.144531 -0.472656 6.5 -0.203125 C 5.863281 0.0664062 5.085938 0.203125 4.171875 0.203125 Z M 4.171875 0.203125 "/></g></g></g><g fill="#000000" fill-opacity="1"><g transform="translate(59.735139, 12.700553)"><g><path d="M 2.734375 -6.78125 L 0.046875 -6.78125 L 0.046875 -9.171875 L 8.515625 -9.171875 L 8.515625 -6.78125 L 5.828125 -6.78125 L 5.828125 0 L 2.734375 0 Z M 2.734375 -6.78125 "/></g></g></g><g fill="#000000" fill-opacity="1"><g transform="translate(67.853254, 12.700553)"><g><path d="M 7 -1.59375 L 3.515625 -1.59375 L 2.890625 0 L -0.25 0 L 3.765625 -9.171875 L 6.796875 -9.171875 L 10.8125 0 L 7.609375 0 Z M 6.140625 -3.828125 L 5.25 -6.140625 L 4.359375 -3.828125 Z M 6.140625 -3.828125 "/></g></g></g><g fill="#000000" fill-opacity="1"><g transform="translate(77.964853, 12.700553)"><g><path d="M 2.734375 -6.78125 L 0.046875 -6.78125 L 0.046875 -9.171875 L 8.515625 -9.171875 L 8.515625 -6.78125 L 5.828125 -6.78125 L 5.828125 0 L 2.734375 0 Z M 2.734375 -6.78125 "/></g></g></g><g fill="#000000" fill-opacity="1"><g transform="translate(86.542061, 12.700553)"><g><path d="M 8.375 -2.328125 L 8.375 0 L 0.75 0 L 0.75 -9.171875 L 8.203125 -9.171875 L 8.203125 -6.84375 L 3.78125 -6.84375 L 3.78125 -5.765625 L 7.671875 -5.765625 L 7.671875 -3.546875 L 3.78125 -3.546875 L 3.78125 -2.328125 Z M 8.375 -2.328125 "/></g></g></g></g></g></g></svg>